<svg width="68" height="68" viewBox="0 0 68 68" fill="none" xmlns="http://www.w3.org/2000/svg">
<rect x="2" y="2" width="64" height="64" stroke="#0f5f63" stroke-width="4"/>
<path d="M58.3751 10.8799C58.3751 10.0515 57.7036 9.37995 56.8751 9.37995L43.3751 9.37995C42.5467 9.37995 41.8751 10.0515 41.8751 10.8799C41.8751 11.7084 42.5467 12.3799 43.3751 12.3799L55.3751 12.3799L55.3751 24.3799C55.3751 25.2084 56.0467 25.8799 56.8751 25.8799C57.7036 25.8799 58.3751 25.2084 58.3751 24.3799L58.3751 10.8799ZM42.5787 27.2977L57.9358 11.9406L55.8145 9.81929L40.4574 25.1764L42.5787 27.2977Z" fill="#0f5f63"/>
<path d="M9.37999 10.8799C9.37999 10.0515 10.0516 9.37995 10.88 9.37995L24.38 9.37995C25.2084 9.37995 25.88 10.0515 25.88 10.8799C25.88 11.7084 25.2084 12.3799 24.38 12.3799L12.38 12.3799L12.38 24.3799C12.38 25.2084 11.7084 25.8799 10.88 25.8799C10.0516 25.8799 9.37999 25.2084 9.37999 24.3799L9.37999 10.8799ZM25.1764 27.2977L9.81933 11.9406L11.9407 9.81929L27.2978 25.1764L25.1764 27.2977Z" fill="#0f5f63"/>
<path d="M58.3751 56.8749C58.3751 57.7034 57.7036 58.3749 56.8751 58.3749L43.3751 58.3749C42.5467 58.3749 41.8751 57.7034 41.8751 56.8749C41.8751 56.0465 42.5467 55.3749 43.3751 55.3749H55.3751L55.3751 43.3749C55.3751 42.5465 56.0467 41.8749 56.8751 41.8749C57.7036 41.8749 58.3751 42.5465 58.3751 43.3749L58.3751 56.8749ZM42.5787 40.4572L57.9358 55.8143L55.8145 57.9356L40.4574 42.5785L42.5787 40.4572Z" fill="#0f5f63"/>
<path d="M9.96068 57.3793C9.96068 58.2078 10.6323 58.8793 11.4607 58.8793L24.9607 58.8793C25.7891 58.8793 26.4607 58.2078 26.4607 57.3793C26.4607 56.5509 25.7891 55.8793 24.9607 55.8793H12.9607L12.9607 43.8793C12.9607 43.0509 12.2891 42.3793 11.4607 42.3793C10.6323 42.3793 9.96068 43.0509 9.96068 43.8793L9.96068 57.3793ZM25.7571 40.9616L10.4 56.3187L12.5213 58.44L27.8785 43.0829L25.7571 40.9616Z" fill="#0f5f63"/>
</svg>
